<svg width="400" height="400" viewBox="0 0 400 400" fill="none" xmlns="http://www.w3.org/2000/svg">
<rect width="400" height="400" rx="20" fill="url(#paint0_linear_179_261)"/>
<path d="M142 193V178H172V163H187V148H142V163H112V133H127V118H202V133H217V163H202V178H187V193H142ZM142 223V208H187V223H142Z" fill="black" fill-opacity="0.9"/>
<path d="M230 236V226H250V216H260V206H230V216H210V196H220V186H270V196H280V216H270V226H260V236H230ZM230 256V246H260V256H230Z" fill="black" fill-opacity="0.9"/>
<path d="M124 277V270H138V263H145V256H124V263H110V249H117V242H152V249H159V263H152V270H145V277H124ZM124 291V284H145V291H124Z" fill="black" fill-opacity="0.9"/>
<defs>
<linearGradient id="paint0_linear_179_261" x1="-8.46324e-06" y1="-17.6" x2="400" y2="400" gradientUnits="userSpaceOnUse">
<stop stop-color="#FF80BF"/>
<stop offset="1" stop-color="#9580FF"/>
</linearGradient>
</defs>
</svg>
